<svg width="28" height="28" viewBox="0 0 28 28" fill="none" xmlns="http://www.w3.org/2000/svg">
<g id="arrow_left_alt">
<mask id="mask0_66_1666" style="mask-type:alpha" maskUnits="userSpaceOnUse" x="0" y="0" width="28" height="28">
<rect id="Bounding box" width="28" height="28" fill="#D9D9D9"/>
</mask>
<g mask="url(#mask0_66_1666)">
<path id="arrow_left_alt_2" d="M8.38415 14.875L12.2251 18.7159C12.3988 18.8896 12.4844 19.0926 12.4821 19.3252C12.4799 19.5578 12.3943 19.7646 12.2251 19.9456C12.0443 20.1264 11.8364 20.2198 11.6015 20.2259C11.3666 20.2319 11.1588 20.1444 10.9779 19.9634L5.75245 14.7382C5.54167 14.5272 5.43628 14.2811 5.43628 14C5.43628 13.7188 5.54167 13.4727 5.75245 13.2617L10.9779 8.03654C11.1514 7.86309 11.3574 7.77744 11.596 7.77958C11.8346 7.78191 12.0443 7.8735 12.2251 8.05433C12.3943 8.23536 12.4818 8.4403 12.4876 8.66916C12.4936 8.89802 12.4061 9.10297 12.2251 9.284L8.38415 13.125H22.1106C22.3589 13.125 22.5667 13.2088 22.7342 13.3764C22.9018 13.5438 22.9856 13.7517 22.9856 14C22.9856 14.2483 22.9018 14.4561 22.7342 14.6235C22.5667 14.7912 22.3589 14.875 22.1106 14.875H8.38415Z" fill="#999999"/>
</g>
</g>
</svg>
