<svg width="36" height="36" viewBox="0 0 36 36" fill="none" xmlns="http://www.w3.org/2000/svg">
<g id="Frame 145">
<mask id="path-1-inside-1_180_1843" fill="white">
<path d="M0 0H36V36H0V0Z"/>
</mask>
<path d="M1 36V0H-1V36H1Z" fill="#B3B3B3" mask="url(#path-1-inside-1_180_1843)"/>
<g id="add_2">
<mask id="mask0_180_1843" style="mask-type:alpha" maskUnits="userSpaceOnUse" x="6" y="6" width="24" height="24">
<rect id="Bounding box" x="6" y="6" width="24" height="24" fill="#D9D9D9"/>
</mask>
<g mask="url(#mask0_180_1843)">
<path id="add_2_2" d="M17.9998 26.5C17.7871 26.5 17.609 26.4281 17.4655 26.2843C17.3218 26.1406 17.25 25.9625 17.25 25.75V18.75H10.25C10.0375 18.75 9.85942 18.6781 9.71575 18.5343C9.57192 18.3904 9.5 18.2122 9.5 17.9998C9.5 17.7871 9.57192 17.609 9.71575 17.4655C9.85942 17.3218 10.0375 17.25 10.25 17.25H17.25V10.25C17.25 10.0375 17.3219 9.85942 17.4658 9.71575C17.6096 9.57192 17.7878 9.5 18.0003 9.5C18.2129 9.5 18.391 9.57192 18.5345 9.71575C18.6782 9.85942 18.75 10.0375 18.75 10.25V17.25H25.75C25.9625 17.25 26.1406 17.3219 26.2843 17.4658C26.4281 17.6096 26.5 17.7878 26.5 18.0003C26.5 18.2129 26.4281 18.391 26.2843 18.5345C26.1406 18.6782 25.9625 18.75 25.75 18.75H18.75V25.75C18.75 25.9625 18.6781 26.1406 18.5343 26.2843C18.3904 26.4281 18.2122 26.5 17.9998 26.5Z" fill="#1A1A1A"/>
</g>
</g>
</g>
</svg>
