<svg width="24" height="25" viewBox="0 0 24 25" fill="none" xmlns="http://www.w3.org/2000/svg">
<g id="broken_image">
<mask id="mask0_421_2020" style="mask-type:alpha" maskUnits="userSpaceOnUse" x="0" y="0" width="24" height="25">
<rect id="Bounding box" y="0.5" width="24" height="24" fill="#D9D9D9"/>
</mask>
<g mask="url(#mask0_421_2020)">
<path id="broken_image_2" d="M5.30775 21C4.80258 21 4.375 20.825 4.025 20.475C3.675 20.125 3.5 19.6974 3.5 19.1923V5.80775C3.5 5.30258 3.675 4.875 4.025 4.525C4.375 4.175 4.80258 4 5.30775 4H18.6923C19.1974 4 19.625 4.175 19.975 4.525C20.325 4.875 20.5 5.30258 20.5 5.80775V19.1923C20.5 19.6974 20.325 20.125 19.975 20.475C19.625 20.825 19.1974 21 18.6923 21H5.30775ZM6 13.4308L9.36725 10.0635C9.54808 9.88267 9.759 9.79225 10 9.79225C10.241 9.79225 10.4519 9.88267 10.6328 10.0635L14 13.4308L17.3673 10.0635C17.5481 9.88267 17.759 9.79225 18 9.79225C18.241 9.79225 18.4519 9.88267 18.6328 10.0635L19 10.4307V5.80775C19 5.71792 18.9712 5.64417 18.9135 5.5865C18.8558 5.52883 18.7821 5.5 18.6923 5.5H5.30775C5.21792 5.5 5.14417 5.52883 5.0865 5.5865C5.02883 5.64417 5 5.71792 5 5.80775V12.4308L6 13.4308ZM5.30775 19.5H18.6923C18.7821 19.5 18.8558 19.4712 18.9135 19.4135C18.9712 19.3558 19 19.2821 19 19.1923V12.5538L18 11.5538L14.6328 14.9213C14.4519 15.1019 14.241 15.1923 14 15.1923C13.759 15.1923 13.5481 15.1019 13.3673 14.9213L10 11.5538L6.63275 14.9213C6.45192 15.1019 6.241 15.1923 6 15.1923C5.759 15.1923 5.54808 15.1019 5.36725 14.9213L5 14.5538V19.1923C5 19.2821 5.02883 19.3558 5.0865 19.4135C5.14417 19.4712 5.21792 19.5 5.30775 19.5ZM5 19.5V12.5538V14.0538V5.5V19.5Z" fill="#333333"/>
</g>
</g>
</svg>
