<svg width="16" height="16" viewBox="0 0 16 16" fill="none" xmlns="http://www.w3.org/2000/svg">
<g id="location_on">
<mask id="mask0_68_2424" style="mask-type:alpha" maskUnits="userSpaceOnUse" x="0" y="0" width="16" height="16">
<rect id="Bounding box" width="16" height="16" fill="#D9D9D9"/>
</mask>
<g mask="url(#mask0_68_2424)">
<path id="location_on_2" d="M7.99977 13.0088C9.304 11.8413 10.3021 10.7214 10.9939 9.64917C11.6858 8.57695 12.0318 7.63784 12.0318 6.83184C12.0318 5.6165 11.6457 4.61739 10.8734 3.8345C10.1012 3.05162 9.14333 2.66017 7.99977 2.66017C6.85622 2.66017 5.89833 3.05162 5.12611 3.8345C4.35388 4.61739 3.96777 5.6165 3.96777 6.83184C3.96777 7.63784 4.31372 8.57695 5.00561 9.64917C5.6975 10.7214 6.69555 11.8413 7.99977 13.0088ZM7.99977 13.96C7.86988 13.96 7.74 13.9376 7.61011 13.8928C7.48011 13.8479 7.36255 13.7785 7.25744 13.6845C6.65922 13.1332 6.09938 12.5654 5.57794 11.9812C5.05661 11.3971 4.60344 10.8131 4.21844 10.2293C3.83333 9.64556 3.52861 9.06695 3.30427 8.4935C3.07994 7.91995 2.96777 7.36606 2.96777 6.83184C2.96777 5.29339 3.46538 4.04789 4.46061 3.09534C5.45594 2.14278 6.63566 1.6665 7.99977 1.6665C9.36388 1.6665 10.5436 2.14278 11.5389 3.09534C12.5342 4.04789 13.0318 5.29339 13.0318 6.83184C13.0318 7.36606 12.9196 7.91884 12.6953 8.49017C12.4709 9.06161 12.1673 9.64028 11.7844 10.2262C11.4014 10.8121 10.9493 11.396 10.4279 11.978C9.90661 12.5601 9.34677 13.1268 8.74844 13.678C8.64488 13.772 8.52716 13.8425 8.39527 13.8895C8.2635 13.9365 8.13166 13.96 7.99977 13.96ZM8.00094 7.91C8.33261 7.91 8.61616 7.79189 8.85161 7.55567C9.08716 7.31945 9.20494 7.0355 9.20494 6.70384C9.20494 6.37217 9.08683 6.08856 8.85061 5.853C8.61438 5.61756 8.33038 5.49984 7.99861 5.49984C7.66694 5.49984 7.38338 5.61795 7.14794 5.85417C6.91238 6.09039 6.79461 6.37439 6.79461 6.70617C6.79461 7.03784 6.91272 7.32139 7.14894 7.55684C7.38516 7.79228 7.66916 7.91 8.00094 7.91Z" fill="#B5B5B5"/>
</g>
</g>
</svg>
