<svg width="30" height="30" viewBox="0 0 30 30" fill="none" xmlns="http://www.w3.org/2000/svg">
<g id="person">
<path id="Vector" d="M15 14.25C13.5563 14.25 12.3204 13.736 11.2924 12.708C10.2641 11.6798 9.75 10.4438 9.75 9C9.75 7.55625 10.2641 6.32038 11.2924 5.29238C12.3204 4.26413 13.5563 3.75 15 3.75C16.4438 3.75 17.6796 4.26413 18.7076 5.29238C19.7359 6.32038 20.25 7.55625 20.25 9C20.25 10.4438 19.7359 11.6798 18.7076 12.708C17.6796 13.736 16.4438 14.25 15 14.25ZM3.75 23.3944V22.3384C3.75 21.6039 3.9495 20.9236 4.3485 20.2976C4.7475 19.6716 5.28075 19.1904 5.94825 18.8539C7.43075 18.1271 8.92637 17.582 10.4351 17.2185C11.9439 16.855 13.4655 16.6733 15 16.6733C16.5345 16.6733 18.0561 16.855 19.5649 17.2185C21.0736 17.582 22.5693 18.1271 24.0518 18.8539C24.7193 19.1904 25.2525 19.6716 25.6515 20.2976C26.0505 20.9236 26.25 21.6039 26.25 22.3384V23.3944C26.25 24.0269 26.0284 24.5649 25.5851 25.0084C25.1419 25.4516 24.6039 25.6733 23.9711 25.6733H6.02888C5.39613 25.6733 4.85812 25.4516 4.41487 25.0084C3.97162 24.5649 3.75 24.0269 3.75 23.3944ZM6 23.4233H24V22.3384C24 22.0346 23.912 21.7534 23.736 21.4946C23.56 21.2361 23.3211 21.0251 23.0194 20.8616C21.7269 20.2251 20.4091 19.7429 19.0661 19.4149C17.7229 19.0871 16.3675 18.9233 15 18.9233C13.6325 18.9233 12.2771 19.0871 10.9339 19.4149C9.59088 19.7429 8.27313 20.2251 6.98062 20.8616C6.67887 21.0251 6.44 21.2361 6.264 21.4946C6.088 21.7534 6 22.0346 6 22.3384V23.4233ZM15 12C15.825 12 16.5313 11.7063 17.1188 11.1188C17.7063 10.5313 18 9.825 18 9C18 8.175 17.7063 7.46875 17.1188 6.88125C16.5313 6.29375 15.825 6 15 6C14.175 6 13.4688 6.29375 12.8813 6.88125C12.2938 7.46875 12 8.175 12 9C12 9.825 12.2938 10.5313 12.8813 11.1188C13.4688 11.7063 14.175 12 15 12Z" fill="#B3B3B3"/>
</g>
</svg>
