<svg width="44" height="44" viewBox="0 0 44 44" fill="none" xmlns="http://www.w3.org/2000/svg">
<g id="scan">
<path id="Vector 5 (Stroke)" fill-rule="evenodd" clip-rule="evenodd" d="M25.1431 1.88571C25.1431 0.844263 25.9873 0 27.0288 0H39.6002C42.0303 0 44.0002 1.96995 44.0002 4.4V16.9714C44.0002 18.0129 43.1559 18.8571 42.1145 18.8571C41.073 18.8571 40.2288 18.0129 40.2288 16.9714V4.4C40.2288 4.05285 39.9474 3.77143 39.6002 3.77143H27.0288C25.9873 3.77143 25.1431 2.92717 25.1431 1.88571Z" fill="#5AC5A6"/>
<path id="Vector 6 (Stroke)" fill-rule="evenodd" clip-rule="evenodd" d="M42.1143 25.1426C43.1557 25.1426 44 25.9868 44 27.0283L44 39.5997C44 42.0298 42.0301 43.9997 39.6 43.9997L27.0286 43.9997C25.9871 43.9997 25.1429 43.1555 25.1429 42.114C25.1429 41.0726 25.9871 40.2283 27.0286 40.2283L39.6 40.2283C39.9471 40.2283 40.2286 39.9469 40.2286 39.5997L40.2286 27.0283C40.2286 25.9868 41.0728 25.1426 42.1143 25.1426Z" fill="#5AC5A6"/>
<path id="Vector 7 (Stroke)" fill-rule="evenodd" clip-rule="evenodd" d="M18.8569 42.1143C18.8569 43.1557 18.0127 44 16.9712 44L4.39979 44C1.96974 44 -0.000209636 42.0301 -0.000209424 39.6L-0.000208325 27.0286C-0.000208234 25.9871 0.844055 25.1429 1.88551 25.1429C2.92696 25.1429 3.77122 25.9871 3.77122 27.0286L3.77122 39.6C3.77122 39.9471 4.05264 40.2286 4.39979 40.2286L16.9712 40.2286C18.0127 40.2286 18.8569 41.0728 18.8569 42.1143Z" fill="#5AC5A6"/>
<path id="Vector 8 (Stroke)" fill-rule="evenodd" clip-rule="evenodd" d="M1.88571 18.8574C0.844263 18.8574 -3.69039e-08 18.0132 -8.24272e-08 16.9717L-6.31942e-07 4.40028C-7.38163e-07 1.97023 1.96995 0.000278387 4.4 0.000278281L16.9714 0.000277731C18.0129 0.000277686 18.8571 0.844541 18.8571 1.88599C18.8571 2.92744 18.0129 3.77171 16.9714 3.77171L4.4 3.77171C4.05285 3.77171 3.77143 4.05313 3.77143 4.40028L3.77143 16.9717C3.77143 18.0132 2.92717 18.8574 1.88571 18.8574Z" fill="#5AC5A6"/>
<path id="Vector 9 (Stroke)" fill-rule="evenodd" clip-rule="evenodd" d="M21.9997 12.5713C23.0412 12.5713 23.8854 13.4156 23.8854 14.457V29.5427C23.8854 30.5842 23.0412 31.4284 21.9997 31.4284C20.9583 31.4284 20.114 30.5842 20.114 29.5427V14.457C20.114 13.4156 20.9583 12.5713 21.9997 12.5713Z" fill="#5AC5A6"/>
<path id="Vector 10 (Stroke)" fill-rule="evenodd" clip-rule="evenodd" d="M12.5713 22C12.5713 20.9585 13.4156 20.1143 14.457 20.1143H29.5427C30.5842 20.1143 31.4284 20.9585 31.4284 22C31.4284 23.0414 30.5842 23.8857 29.5427 23.8857H14.457C13.4156 23.8857 12.5713 23.0414 12.5713 22Z" fill="#5AC5A6"/>
</g>
</svg>
