<svg width="32" height="32" viewBox="0 0 32 32" fill="none" xmlns="http://www.w3.org/2000/svg">
<g id="close">
<mask id="mask0_68_2438" style="mask-type:alpha" maskUnits="userSpaceOnUse" x="0" y="0" width="32" height="32">
<rect id="Bounding box" width="32" height="32" fill="#D9D9D9"/>
</mask>
<g mask="url(#mask0_68_2438)">
<path id="close_2" d="M16 17.405L9.23602 24.1694C9.05135 24.3538 8.81924 24.4482 8.53968 24.4527C8.26035 24.4569 8.02402 24.3625 7.83068 24.1694C7.63757 23.976 7.54102 23.7418 7.54102 23.4667C7.54102 23.1916 7.63757 22.9574 7.83068 22.764L14.595 16L7.83068 9.23602C7.64624 9.05135 7.55179 8.81924 7.54735 8.53968C7.54313 8.26035 7.63757 8.02402 7.83068 7.83068C8.02402 7.63757 8.25824 7.54102 8.53335 7.54102C8.80846 7.54102 9.04268 7.63757 9.23602 7.83068L16 14.595L22.764 7.83068C22.9487 7.64624 23.1808 7.55179 23.4604 7.54735C23.7397 7.54313 23.976 7.63757 24.1694 7.83068C24.3625 8.02402 24.459 8.25824 24.459 8.53335C24.459 8.80846 24.3625 9.04268 24.1694 9.23602L17.405 16L24.1694 22.764C24.3538 22.9487 24.4482 23.1808 24.4527 23.4604C24.4569 23.7397 24.3625 23.976 24.1694 24.1694C23.976 24.3625 23.7418 24.459 23.4667 24.459C23.1916 24.459 22.9574 24.3625 22.764 24.1694L16 17.405Z" fill="#1C1B1F"/>
</g>
</g>
</svg>
