<svg width="24" height="25" viewBox="0 0 24 25" fill="none" xmlns="http://www.w3.org/2000/svg">
<g id="lock">
<mask id="mask0_421_1956" style="mask-type:alpha" maskUnits="userSpaceOnUse" x="0" y="0" width="24" height="25">
<rect id="Bounding box" y="0.5" width="24" height="24" fill="#D9D9D9"/>
</mask>
<g mask="url(#mask0_421_1956)">
<path id="lock_2" d="M6.30775 22C5.80908 22 5.38308 21.8234 5.02975 21.4703C4.67658 21.1169 4.5 20.6909 4.5 20.1923V10.8077C4.5 10.3091 4.67658 9.88308 5.02975 9.52975C5.38308 9.17658 5.80908 9 6.30775 9H7.5V7C7.5 5.75133 7.93783 4.68917 8.8135 3.8135C9.68917 2.93783 10.7513 2.5 12 2.5C13.2487 2.5 14.3108 2.93783 15.1865 3.8135C16.0622 4.68917 16.5 5.75133 16.5 7V9H17.6923C18.1909 9 18.6169 9.17658 18.9703 9.52975C19.3234 9.88308 19.5 10.3091 19.5 10.8077V20.1923C19.5 20.6909 19.3234 21.1169 18.9703 21.4703C18.6169 21.8234 18.1909 22 17.6923 22H6.30775ZM6.30775 20.5H17.6923C17.7821 20.5 17.8558 20.4712 17.9135 20.4135C17.9712 20.3558 18 20.2821 18 20.1923V10.8077C18 10.7179 17.9712 10.6442 17.9135 10.5865C17.8558 10.5288 17.7821 10.5 17.6923 10.5H6.30775C6.21792 10.5 6.14417 10.5288 6.0865 10.5865C6.02883 10.6442 6 10.7179 6 10.8077V20.1923C6 20.2821 6.02883 20.3558 6.0865 20.4135C6.14417 20.4712 6.21792 20.5 6.30775 20.5ZM12 17.25C12.4858 17.25 12.899 17.0798 13.2395 16.7395C13.5798 16.399 13.75 15.9858 13.75 15.5C13.75 15.0142 13.5798 14.601 13.2395 14.2605C12.899 13.9202 12.4858 13.75 12 13.75C11.5142 13.75 11.101 13.9202 10.7605 14.2605C10.4202 14.601 10.25 15.0142 10.25 15.5C10.25 15.9858 10.4202 16.399 10.7605 16.7395C11.101 17.0798 11.5142 17.25 12 17.25ZM9 9H15V7C15 6.16667 14.7083 5.45833 14.125 4.875C13.5417 4.29167 12.8333 4 12 4C11.1667 4 10.4583 4.29167 9.875 4.875C9.29167 5.45833 9 6.16667 9 7V9Z" fill="#333333"/>
</g>
</g>
</svg>
