<svg width="24" height="25" viewBox="0 0 24 25" fill="none" xmlns="http://www.w3.org/2000/svg">
<g id="more_horiz">
<mask id="mask0_421_2036" style="mask-type:alpha" maskUnits="userSpaceOnUse" x="0" y="0" width="24" height="25">
<rect id="Bounding box" y="0.5" width="24" height="24" fill="#D9D9D9"/>
</mask>
<g mask="url(#mask0_421_2036)">
<path id="more_horiz_2" d="M6.23096 14C5.81846 14 5.46537 13.8531 5.17171 13.5592C4.87787 13.2656 4.73096 12.9125 4.73096 12.5C4.73096 12.0875 4.87787 11.7344 5.17171 11.4408C5.46537 11.1469 5.81846 11 6.23096 11C6.64346 11 6.99662 11.1469 7.29046 11.4408C7.58412 11.7344 7.73096 12.0875 7.73096 12.5C7.73096 12.9125 7.58412 13.2656 7.29046 13.5592C6.99662 13.8531 6.64346 14 6.23096 14ZM12.0002 14C11.5877 14 11.2346 13.8531 10.941 13.5592C10.6471 13.2656 10.5002 12.9125 10.5002 12.5C10.5002 12.0875 10.6471 11.7344 10.941 11.4408C11.2346 11.1469 11.5877 11 12.0002 11C12.4127 11 12.7658 11.1469 13.0595 11.4408C13.3533 11.7344 13.5002 12.0875 13.5002 12.5C13.5002 12.9125 13.3533 13.2656 13.0595 13.5592C12.7658 13.8531 12.4127 14 12.0002 14ZM17.7695 14C17.357 14 17.0038 13.8531 16.71 13.5592C16.4163 13.2656 16.2695 12.9125 16.2695 12.5C16.2695 12.0875 16.4163 11.7344 16.71 11.4408C17.0038 11.1469 17.357 11 17.7695 11C18.182 11 18.535 11.1469 18.8287 11.4408C19.1225 11.7344 19.2695 12.0875 19.2695 12.5C19.2695 12.9125 19.1225 13.2656 18.8287 13.5592C18.535 13.8531 18.182 14 17.7695 14Z" fill="#333333"/>
</g>
</g>
</svg>
