<svg width="24" height="25" viewBox="0 0 24 25" fill="none" xmlns="http://www.w3.org/2000/svg">
<g id="notifications">
<mask id="mask0_421_1986" style="mask-type:alpha" maskUnits="userSpaceOnUse" x="0" y="0" width="24" height="25">
<rect id="Bounding box" y="0.5" width="24" height="24" fill="#D9D9D9"/>
</mask>
<g mask="url(#mask0_421_1986)">
<path id="notifications_2" d="M5.25 19.3845C5.0375 19.3845 4.85942 19.3127 4.71575 19.169C4.57192 19.0252 4.5 18.8469 4.5 18.6343C4.5 18.4218 4.57192 18.2437 4.71575 18.1C4.85942 17.9565 5.0375 17.8848 5.25 17.8848H6.30775V10.423C6.30775 9.07817 6.72283 7.88908 7.553 6.85575C8.383 5.82242 9.44867 5.1615 10.75 4.873V4.25C10.75 3.90283 10.8714 3.60767 11.1143 3.3645C11.3571 3.1215 11.6519 3 11.9988 3C12.3458 3 12.641 3.1215 12.8845 3.3645C13.1282 3.60767 13.25 3.90283 13.25 4.25V4.873C14.5513 5.1615 15.617 5.82242 16.447 6.85575C17.2772 7.88908 17.6923 9.07817 17.6923 10.423V17.8848H18.75C18.9625 17.8848 19.1406 17.9566 19.2843 18.1003C19.4281 18.2441 19.5 18.4223 19.5 18.635C19.5 18.8475 19.4281 19.0256 19.2843 19.1693C19.1406 19.3128 18.9625 19.3845 18.75 19.3845H5.25ZM11.9983 22.1923C11.5008 22.1923 11.0754 22.0153 10.7223 21.6613C10.3689 21.3073 10.1923 20.8817 10.1923 20.3845H13.8077C13.8077 20.8833 13.6306 21.3093 13.2762 21.6625C12.9219 22.0157 12.4959 22.1923 11.9983 22.1923ZM7.80775 17.8848H16.1923V10.423C16.1923 9.26533 15.783 8.27725 14.9645 7.45875C14.1458 6.64008 13.1577 6.23075 12 6.23075C10.8423 6.23075 9.85417 6.64008 9.0355 7.45875C8.217 8.27725 7.80775 9.26533 7.80775 10.423V17.8848Z" fill="#333333"/>
</g>
</g>
</svg>
