<svg width="30" height="30" viewBox="0 0 30 30" fill="none" xmlns="http://www.w3.org/2000/svg">
<g id="settings">
<path id="Vector" d="M13.6154 26.875C13.1892 26.875 12.8211 26.7335 12.5111 26.4506C12.2008 26.1679 12.0121 25.8198 11.9448 25.4062L11.6395 23.0672C11.3047 22.9551 10.9614 22.7981 10.6095 22.5962C10.2578 22.3942 9.94334 22.1778 9.66605 21.9472L7.50011 22.8678C7.10741 23.0409 6.71282 23.0577 6.31636 22.9181C5.9197 22.7787 5.61157 22.5256 5.39199 22.1587L3.98324 19.7162C3.76366 19.3494 3.70043 18.9611 3.79355 18.5516C3.88647 18.1422 4.09959 17.8045 4.43293 17.5384L6.30543 16.1322C6.27668 15.9464 6.25626 15.7597 6.24418 15.5722C6.23209 15.3847 6.22605 15.1979 6.22605 15.0119C6.22605 14.8342 6.23209 14.6535 6.24418 14.47C6.25626 14.2865 6.27668 14.0857 6.30543 13.8678L4.43293 12.4616C4.09959 12.1955 3.88845 11.8557 3.79949 11.4422C3.71053 11.0289 3.77584 10.6386 3.99543 10.2716L5.39199 7.86531C5.61157 7.50635 5.9197 7.25521 6.31636 7.11188C6.71282 6.96833 7.10741 6.98312 7.50011 7.15625L9.65387 8.065C9.95532 7.82625 10.2771 7.60792 10.6192 7.41C10.9613 7.21208 11.2974 7.05302 11.6276 6.93281L11.9448 4.59375C12.0121 4.18021 12.2008 3.83208 12.5111 3.54938C12.8211 3.26646 13.1892 3.125 13.6154 3.125H16.3848C16.8111 3.125 17.1792 3.26646 17.4892 3.54938C17.7994 3.83208 17.9881 4.18021 18.0554 4.59375L18.3607 6.94469C18.7357 7.08094 19.075 7.24 19.3786 7.42187C19.6823 7.60375 19.9889 7.81813 20.2982 8.065L22.5123 7.15625C22.9048 6.98312 23.2994 6.96833 23.6961 7.11188C24.0927 7.25521 24.4007 7.50635 24.6201 7.86531L26.017 10.2838C26.2366 10.6506 26.2998 11.0389 26.2067 11.4484C26.1138 11.8578 25.9006 12.1955 25.5673 12.4616L23.6467 13.9037C23.6915 14.1056 23.7159 14.2944 23.7201 14.47C23.7241 14.6454 23.7261 14.8221 23.7261 15C23.7261 15.1698 23.722 15.3425 23.7139 15.5181C23.7059 15.6935 23.6772 15.8943 23.6276 16.1203L25.512 17.5384C25.8453 17.8045 26.0605 18.1422 26.1576 18.5516C26.2545 18.9611 26.1931 19.3494 25.9736 19.7162L24.5576 22.1466C24.3382 22.5136 24.0282 22.7669 23.6276 22.9062C23.227 23.0456 22.8303 23.0287 22.4376 22.8556L20.2982 21.935C19.9889 22.1819 19.6731 22.4002 19.3511 22.59C19.029 22.78 18.6989 22.9351 18.3607 23.0553L18.0554 25.4062C17.9881 25.8198 17.7994 26.1679 17.4892 26.4506C17.1792 26.7335 16.8111 26.875 16.3848 26.875H13.6154ZM13.7501 25H16.207L16.6564 21.6516C17.2943 21.4849 17.8772 21.2481 18.4051 20.9412C18.9332 20.6342 19.4425 20.2395 19.9329 19.7572L23.0386 21.0625L24.2695 18.9375L21.5579 16.8944C21.6621 16.5706 21.7329 16.2532 21.7704 15.9422C21.8081 15.6314 21.827 15.3173 21.827 15C21.827 14.6746 21.8081 14.3605 21.7704 14.0578C21.7329 13.7549 21.6621 13.4455 21.5579 13.1297L24.2932 11.0625L23.0626 8.9375L19.9207 10.2619C19.5024 9.81479 19.0013 9.41979 18.4173 9.07688C17.8331 8.73396 17.2422 8.49115 16.6445 8.34844L16.2501 5H13.7695L13.3557 8.33656C12.718 8.48719 12.1292 8.71792 11.5892 9.02875C11.049 9.33979 10.5337 9.74042 10.0432 10.2306L6.93761 8.9375L5.70699 11.0625L8.40636 13.0744C8.3022 13.371 8.22928 13.6796 8.18761 14C8.14595 14.3204 8.12511 14.6577 8.12511 15.0119C8.12511 15.3373 8.14595 15.6562 8.18761 15.9687C8.22928 16.2812 8.29824 16.5898 8.39449 16.8944L5.70699 18.9375L6.93761 21.0625L10.0314 19.75C10.5057 20.2371 11.0129 20.6361 11.5529 20.9472C12.0931 21.258 12.6901 21.4968 13.3439 21.6634L13.7501 25ZM15.0145 18.75C16.0545 18.75 16.9395 18.385 17.6695 17.655C18.3995 16.925 18.7645 16.04 18.7645 15C18.7645 13.96 18.3995 13.075 17.6695 12.345C16.9395 11.615 16.0545 11.25 15.0145 11.25C13.9616 11.25 13.0733 11.615 12.3498 12.345C11.6263 13.075 11.2645 13.96 11.2645 15C11.2645 16.04 11.6263 16.925 12.3498 17.655C13.0733 18.385 13.9616 18.75 15.0145 18.75Z" fill="#B3B3B3"/>
</g>
</svg>
