<svg width="30" height="30" viewBox="0 0 30 30" fill="none" xmlns="http://www.w3.org/2000/svg">
<g id="gite">
<path id="Vector" d="M4.24925 25C3.53687 25 2.9283 24.7477 2.42353 24.2432C1.91901 23.7385 1.66675 23.1299 1.66675 22.4175V14.2282C1.66675 13.893 1.72901 13.5687 1.85353 13.2554C1.97806 12.9423 2.15758 12.6685 2.3921 12.4339L6.40853 8.33536C6.64306 8.09155 6.92139 7.90286 7.24353 7.76928C7.56591 7.63548 7.89925 7.56857 8.24353 7.56857H8.8096V6.07143C8.8096 5.76738 8.91222 5.51286 9.11746 5.30786C9.32246 5.10262 9.57698 5 9.88103 5C10.1851 5 10.4396 5.10262 10.6446 5.30786C10.8498 5.51286 10.9525 5.76738 10.9525 6.07143V7.56857H22.2328C22.5771 7.56857 22.9104 7.63548 23.2328 7.76928C23.555 7.90286 23.8333 8.09155 24.0678 8.33536L28.0842 12.4339C28.3188 12.6685 28.4983 12.9423 28.6228 13.2554C28.7473 13.5687 28.8096 13.893 28.8096 14.2282V22.4175C28.8096 23.1299 28.5573 23.7385 28.0528 24.2432C27.548 24.7477 26.9395 25 26.2271 25H4.24925ZM20.2382 22.8571H26.2271C26.3554 22.8571 26.4608 22.816 26.5432 22.7336C26.6255 22.6512 26.6667 22.5458 26.6667 22.4175V14.0632L23.466 10.7664L20.2382 14.0907V22.8571ZM18.0953 22.8571V15.5632H3.8096V22.4175C3.8096 22.5458 3.8508 22.6512 3.93318 22.7336C4.01556 22.816 4.12091 22.8571 4.24925 22.8571H18.0953Z" fill="#FE8295"/>
</g>
</svg>
